 <svg version="1.0" xmlns="http://www.w3.org/2000/svg" width="700.000000pt" height="700.000000pt" viewBox="0 0 700.000000 700.000000" preserveAspectRatio="xMidYMid meet">
<metadata>
Created by potrace 1.12, written by Peter Selinger 2001-2015
</metadata>
<g transform="translate(0.000000,700.000000) scale(0.100000,-0.100000)" fill="#000000" stroke="none">
<path d="M41 6956 l-42 -43 37 -42 c21 -22 42 -41 48 -41 6 0 30 19 53 42 l43
42 -42 43 c-23 24 -45 43 -48 43 -3 0 -25 -20 -49 -44z m83 -15 c15 -16 23
-31 18 -35 -5 -3 -20 6 -32 19 -22 23 -25 24 -42 8 -27 -24 -22 -33 18 -33 38
0 42 -14 11 -34 -14 -9 -22 -5 -43 17 l-25 27 21 30 c27 37 39 38 74 1z"></path>
</g>
</svg>